<svg width="581" height="339" viewBox="0 0 581 339" fill="none" xmlns="http://www.w3.org/2000/svg">
<path d="M12.5005 182.375C16.8252 178.939 31.1624 170.295 55.3482 157.519C78.3578 145.364 95.2407 139.445 102.114 135.003C110.186 129.787 121.432 124.905 134.632 118.198C141.289 114.815 152.714 108.946 169.754 103.704C186.794 98.461 209.067 93.9506 223.027 91.6271C241.844 88.4952 251.193 88.874 262.5 88.2231C279.834 87.2253 292.278 88.2166 295.876 88.8642C298.965 89.4204 310.541 95.1156 328.538 103.775C349.451 113.838 358.401 128.511 370.34 141.206C379.107 150.528 384.225 164.952 388.701 176.007C391.203 182.187 391.675 192.06 391.466 206.46C391.287 218.728 382.987 233.48 375.785 248.765C372.027 256.742 360.544 268.619 342.773 286.277C329.509 299.457 311.845 309.662 293.52 319.636C281.942 325.939 268.787 325.992 255.479 325.891C246.689 325.824 239.916 318.012 233.587 310.645C226.723 302.656 227.427 291.328 226.991 281.138C226.549 270.807 228.724 259.013 234.799 244.004C238.835 234.032 247.793 220.619 256.134 209.027C271.577 187.567 285.483 175.47 293.333 168.541C299.796 162.838 315.75 148.856 337.58 131.941C347.819 124.007 360.347 116.275 376.713 105.109C386.173 98.6547 399.014 91.9655 416.667 81.4608C425.07 76.4607 433.023 73.3186 442.979 68.1118C465.103 56.5422 483.786 45.9439 495.132 40.6362C512.148 32.6757 531.64 25.3119 547.133 20.3361C551.095 18.8099 554.338 17.3064 557.847 15.8876C561.356 14.4687 565.032 13.18 567.509 12.5032" stroke="#FF87C5" stroke-width="25" stroke-linecap="round"/>
</svg>
