<svg width="606" height="365" viewBox="0 0 606 365" fill="none" xmlns="http://www.w3.org/2000/svg">
<path d="M25.001 196.026C29.3257 192.59 43.6629 183.946 67.8487 171.17C90.8583 159.015 107.741 153.096 114.615 148.654C122.686 143.438 133.932 138.556 147.132 131.849C153.79 128.466 165.214 122.597 182.254 117.354C199.295 112.112 221.567 107.601 235.527 105.278C254.344 102.146 263.694 102.525 275 101.874C292.334 100.876 304.779 101.867 308.376 102.515C311.466 103.071 323.041 108.766 341.038 117.426C361.951 127.489 370.902 142.162 382.841 154.856C391.607 164.179 396.726 178.603 401.201 189.657C403.703 195.838 404.176 205.711 403.966 220.111C403.788 232.378 395.487 247.131 388.286 262.416C384.527 270.393 373.044 282.27 355.274 299.928C342.009 313.108 324.345 323.313 306.021 333.287C294.442 339.589 281.288 339.643 267.979 339.542C259.19 339.475 252.417 331.663 246.087 324.296C239.224 316.307 239.928 304.978 239.492 294.789C239.05 284.458 241.225 272.664 247.299 257.655C251.335 247.683 260.293 234.27 268.635 222.678C284.078 201.218 297.984 189.121 305.834 182.192C312.296 176.489 328.251 162.507 350.081 145.592C360.32 137.658 372.848 129.926 389.213 118.76C398.674 112.306 411.515 105.616 429.168 95.1117C437.57 90.1116 445.523 86.9695 455.48 81.7627C477.604 70.193 496.286 59.5947 507.632 54.2871C524.649 46.3265 544.14 38.9628 559.634 33.987C563.595 32.4608 566.839 30.9573 570.348 29.5385C573.856 28.1196 577.533 26.8309 580.009 26.154" stroke="#FF87C5" stroke-width="50" stroke-linecap="round"/>
<path d="M25.001 182.375C29.3257 178.939 43.6629 170.295 67.8487 157.519C90.8583 145.364 107.741 139.445 114.615 135.003C122.686 129.787 133.932 124.905 147.132 118.198C153.79 114.815 165.214 108.946 182.254 103.704C199.295 98.461 221.567 93.9506 235.527 91.6271C254.344 88.4952 263.694 88.874 275 88.2231C292.334 87.2253 304.779 88.2166 308.376 88.8642C311.466 89.4204 323.041 95.1156 341.038 103.775C361.951 113.838 370.902 128.511 382.841 141.206C391.607 150.528 396.726 164.952 401.201 176.007C403.703 182.187 404.176 192.06 403.966 206.46C403.788 218.728 395.487 233.48 388.286 248.765C384.527 256.742 373.044 268.619 355.274 286.277C342.009 299.457 324.345 309.662 306.021 319.636C294.442 325.939 281.288 325.992 267.979 325.891C259.19 325.824 252.417 318.012 246.087 310.645C239.224 302.656 239.928 291.328 239.492 281.138C239.05 270.807 241.225 259.013 247.299 244.004C251.335 234.032 260.293 220.619 268.635 209.027C284.078 187.567 297.984 175.47 305.834 168.541C312.296 162.838 328.251 148.856 350.081 131.941C360.32 124.007 372.848 116.275 389.213 105.109C398.674 98.6548 411.515 91.9655 429.168 81.4608C437.57 76.4607 445.523 73.3187 455.48 68.1119C477.604 56.5422 496.286 45.9439 507.632 40.6362C524.649 32.6757 544.14 25.3119 559.634 20.3362C563.595 18.8099 566.839 17.3064 570.348 15.8876C573.856 14.4687 577.533 13.18 580.009 12.5032" stroke="white" stroke-opacity="0.5" stroke-width="25" stroke-linecap="round"/>
</svg>
