<svg width="606" height="364" viewBox="0 0 606 364" fill="none" xmlns="http://www.w3.org/2000/svg">
<g opacity="0.75">
<path d="M25.001 194.878C29.3257 191.442 43.6629 182.799 67.8487 170.022C90.8583 157.867 107.741 151.948 114.615 147.506C122.686 142.29 133.932 137.408 147.132 130.701C153.79 127.319 165.214 121.449 182.254 116.207C199.295 110.964 221.567 106.454 235.527 104.13C254.344 100.998 263.694 101.377 275 100.726C292.334 99.7285 304.779 100.72 308.376 101.367C311.466 101.924 323.041 107.619 341.038 116.278C361.951 126.341 370.902 141.014 382.841 153.709C391.607 163.031 396.726 177.455 401.201 188.51C403.703 194.69 404.176 204.563 403.966 218.963C403.788 231.231 395.487 245.983 388.286 261.268C384.527 269.246 373.044 281.123 355.274 298.78C342.009 311.96 324.345 322.165 306.021 332.139C294.442 338.442 281.288 338.495 267.979 338.394C259.19 338.328 252.417 330.516 246.087 323.148C239.224 315.159 239.928 303.831 239.492 293.642C239.05 283.31 241.225 271.516 247.299 256.507C251.335 246.535 260.293 233.122 268.635 221.531C284.078 200.07 297.984 187.973 305.834 181.045C312.296 175.341 328.251 161.36 350.081 144.444C360.32 136.51 372.848 128.778 389.213 117.613C398.674 111.158 411.515 104.469 429.168 93.964C437.57 88.9639 445.523 85.8218 455.48 80.615C477.604 69.0453 496.286 58.447 507.632 53.1393C524.649 45.1788 544.14 37.8151 559.634 32.8393C563.595 31.3131 566.839 29.8096 570.348 28.3908C573.856 26.9719 577.533 25.6832 580.009 25.0063" stroke="#FF87C5" stroke-width="50" stroke-linecap="round"/>
</g>
</svg>
