<svg width="700" height="700" viewBox="0 0 700 700" fill="none" xmlns="http://www.w3.org/2000/svg">
<rect width="700" height="700" rx="100" fill="#FFDCEE"/>
<path d="M72 362.523C76.3247 359.086 90.6619 350.443 114.848 337.667C137.857 325.512 154.74 319.593 161.614 315.151C169.685 309.935 180.931 305.053 194.131 298.346C200.789 294.963 212.213 289.094 229.254 283.851C246.294 278.609 268.566 274.098 282.526 271.775C301.343 268.643 310.693 269.022 322 268.371C339.333 267.373 351.778 268.364 355.375 269.012C358.465 269.568 370.04 275.263 388.037 283.923C408.95 293.986 417.901 308.658 429.84 321.353C438.607 330.675 443.725 345.1 448.2 356.154C450.702 362.335 451.175 372.208 450.965 386.608C450.787 398.875 442.486 413.628 435.285 428.913C431.526 436.89 420.043 448.767 402.273 466.425C389.008 479.605 371.344 489.81 353.02 499.784C341.441 506.086 328.287 506.14 314.978 506.039C306.189 505.972 299.416 498.16 293.086 490.792C286.223 482.804 286.927 471.475 286.491 461.286C286.049 450.955 288.224 439.16 294.298 424.152C298.334 414.18 307.292 400.767 315.634 389.175C331.077 367.715 344.983 355.617 352.833 348.689C359.295 342.986 375.25 329.004 397.08 312.088C407.319 304.154 419.847 296.422 436.212 285.257C445.673 278.802 458.514 272.113 476.167 261.608C484.569 256.608 492.522 253.466 502.479 248.26C524.603 236.69 543.285 226.092 554.631 220.784C571.648 212.823 591.139 205.46 606.633 200.484C610.594 198.958 613.838 197.454 617.347 196.035C620.855 194.616 624.532 193.328 627.008 192.651" stroke="#FF87C5" stroke-width="50" stroke-linecap="round"/>
<path d="M72 348.872C76.3247 345.436 90.6619 336.792 114.848 324.016C137.857 311.861 154.74 305.942 161.614 301.5C169.685 296.284 180.931 291.402 194.131 284.695C200.789 281.312 212.213 275.443 229.254 270.2C246.294 264.958 268.566 260.447 282.526 258.124C301.343 254.992 310.693 255.371 322 254.72C339.333 253.722 351.778 254.713 355.375 255.361C358.465 255.917 370.04 261.612 388.037 270.272C408.95 280.335 417.901 295.008 429.84 307.702C438.607 317.024 443.725 331.449 448.2 342.503C450.702 348.684 451.175 358.557 450.965 372.957C450.787 385.224 442.486 399.977 435.285 415.262C431.526 423.239 420.043 435.116 402.273 452.774C389.008 465.954 371.344 476.159 353.02 486.133C341.441 492.435 328.287 492.489 314.978 492.388C306.189 492.321 299.416 484.509 293.086 477.142C286.223 469.153 286.927 457.824 286.491 447.635C286.049 437.304 288.224 425.51 294.298 410.501C298.334 400.529 307.292 387.116 315.634 375.524C331.077 354.064 344.983 341.966 352.833 335.038C359.295 329.335 375.25 315.353 397.08 298.438C407.319 290.504 419.847 282.772 436.212 271.606C445.673 265.152 458.514 258.462 476.167 247.958C484.569 242.958 492.522 239.815 502.479 234.609C524.603 223.039 543.285 212.441 554.631 207.133C571.648 199.173 591.139 191.809 606.633 186.833C610.594 185.307 613.838 183.803 617.347 182.384C620.855 180.966 624.532 179.677 627.008 179" stroke="white" stroke-opacity="0.5" stroke-width="25" stroke-linecap="round"/>
</svg>
