<svg width="700" height="700" viewBox="0 0 700 700" fill="none" xmlns="http://www.w3.org/2000/svg">
<rect width="700" height="700" rx="100" fill="#FFDCEE"/>
<path d="M624.93 168.042C634.995 167.193 644.933 172.252 649.539 181.909C651.349 185.704 651.846 189.699 651.688 193.627L651.883 193.823V195.581L651.688 196.167V197.729C651.26 201.928 649.254 209.788 641.727 215.502C639.407 217.255 636.754 217.65 634.5 218.432C633.583 219.253 632.89 220.424 631.766 221.167C628.213 223.504 624.524 224.198 621.219 224.682C618.481 226.282 615.625 227.3 612.43 227.807C608.03 230.844 602.716 233.311 596.219 232.885L594.852 232.69H593.68C591.6 234.758 589.115 236.89 585.867 238.354C580.837 240.615 575.811 240.785 571.609 240.307C568.248 244.456 563.579 248.675 556.18 250.073L554.812 250.268H554.031C551.146 253.609 547.208 256.932 541.336 258.471C538.229 259.275 535.335 259.263 532.742 259.057C532.051 259.315 531.479 259.838 530.789 260.034C530.615 260.259 530.581 260.591 530.398 260.815L529.617 261.987L528.836 262.963C526.15 266.255 522.599 269.281 518.289 271.362L517.508 271.752C513.25 275.562 508.29 277.402 503.055 278.002C502.013 278.646 501.004 279.091 499.93 279.565C496.575 282.917 492.404 286.147 486.453 287.182C486.169 287.231 485.756 286.948 485.477 286.987C484.997 287.273 484.626 287.893 484.109 288.159C481.48 289.505 478.909 290.298 476.492 290.698C476.049 291.345 475.851 292.202 475.32 292.846C471.48 297.504 466.065 300.164 460.281 301.44C458.73 302.381 457.323 303.223 455.789 303.784C454.998 304.552 454.402 305.607 453.445 306.323C453.244 306.473 452.866 306.375 452.664 306.518L453.055 307.69L453.641 308.862C453.753 309.168 453.726 309.53 453.836 309.838C454.123 310.021 454.525 310.03 454.812 310.229C459.745 313.654 462.494 318.513 464.188 323.51C464.838 324.269 465.755 324.812 466.336 325.659L470.828 336.596L471.023 337.963L471.219 339.135C471.393 340.137 471.295 341.252 471.414 342.26C474.191 347.575 475.462 353.088 474.93 358.276V359.643L474.734 361.01C474.505 363.248 473.795 365.426 473.172 367.651C474.027 369.204 475.125 370.76 475.711 372.729C477.411 378.469 476.587 383.921 474.93 388.745V394.018L475.125 395.385C475.394 397.318 475.489 399.288 475.516 401.245V404.174C475.568 410.231 473.664 416.467 469.461 421.557C469.043 422.063 468.33 422.276 467.898 422.729C467.396 426.148 466.439 429.812 464.383 433.276L463.797 434.252L463.211 435.424C460.147 440.581 455.824 443.415 452.078 445.385C450.666 447.279 449.082 448.969 447.195 450.463C446.241 452.978 444.967 455.324 443.289 457.495C442.59 460.578 441.639 463.978 439.383 467.26L438.797 468.432L438.016 469.409C434.991 473.806 431.107 476.532 427.273 478.393C425.49 480.407 423.856 482.74 421.219 484.252H420.633C418.356 489.053 414.829 494.029 408.328 497.143L405.984 498.315C405.009 498.782 403.843 498.733 402.859 499.096C399.829 503.62 395.906 507.685 389.969 509.838C386.016 513.063 381.776 514.57 377.664 515.307C375.832 516.485 374.072 517.889 371.805 518.627C369.484 519.379 367.226 519.476 365.164 519.604C363.562 520.395 361.796 520.508 360.086 520.971C358.27 522.325 356.252 523.357 354.031 524.292C349.943 528.029 343.586 531.608 335.281 531.323C334.386 531.292 333.578 530.848 332.742 530.737C331.879 531.199 331.187 532.105 330.203 532.495C322.027 535.727 313.697 534.379 307.352 530.737L305.984 530.151L304.812 529.37C303.962 528.882 303.26 528.16 302.469 527.612C298.787 526.9 294.845 525.316 291.141 522.338C290.815 522.076 290.663 521.631 290.359 521.362C288.77 520.84 286.937 520.75 285.281 519.799C278.301 515.785 275.319 509.668 273.758 504.37L272.586 503.198C270.078 501.563 266.452 498.665 263.797 493.823C260.91 488.544 260.106 482.612 261.062 477.026C261.711 473.298 263.272 470.3 264.773 467.846V467.651C262.661 463.604 260.736 458.768 261.062 453.002L261.258 451.831V450.463C261.367 448.571 261.811 446.836 262.234 445.19C261.964 443.772 261.476 442.305 261.453 440.698C261.412 436.869 262.055 433.39 263.211 430.542C263.199 427.449 263.642 423.992 265.164 420.385C266.841 416.423 269.349 413.611 271.805 411.401C271.717 405.577 273.228 398.662 279.422 392.456L279.617 392.26C282.891 386.053 287.805 382.214 292.508 379.956C293.168 374.842 295.26 368.791 301.102 363.745C301.765 363.176 302.577 362.655 303.25 362.182C304.441 359.014 306.525 355.839 309.695 352.807C310.422 352.114 311.294 351.62 312.039 351.049L313.016 349.096C316.824 341.126 323.197 337.32 329.031 335.424C330.512 334.13 331.829 332.518 333.719 331.518L333.914 331.323C337.366 327.175 341.653 324.905 345.633 323.51C347.198 320.348 349.587 317.107 353.25 314.331C354.07 313.713 355.16 313.451 355.984 312.963C357.911 309.146 360.889 305.298 365.359 302.417C365.531 302.307 365.774 302.13 365.945 302.026C366.333 301.445 366.667 300.842 367.117 300.268L366.922 300.073C366.298 299.88 365.6 299.927 364.969 299.682C362.636 299.559 360.16 299.294 357.742 298.706L356.57 298.315L355.398 298.12C353.03 297.543 350.954 296.111 348.758 294.995C342.932 296.529 336.983 296.537 331.57 294.213C329.868 293.476 328.404 292.384 327.078 291.479L327.273 291.674L326.102 291.87H324.93C321.895 292.129 318.7 292.002 315.75 291.479L313.406 291.088C313.17 291.046 312.86 290.939 312.625 290.893C309.94 292.111 307.31 292.737 304.617 293.042C303.192 293.98 301.902 295.437 300.125 296.167L298.953 296.557L297.781 297.143C294.657 298.419 291.308 299.223 287.82 299.487L286.648 299.682H285.281C282.188 299.91 279.398 299.52 276.883 298.901C273.634 301.066 269.515 302.828 264.383 303.198C261.427 303.406 258.942 302.404 256.57 301.831L255.984 302.612C251.984 306.061 246.956 307.454 241.727 308.081C240.52 308.793 239.465 309.867 238.016 310.424C233.477 312.169 229.342 312.24 225.711 311.792C224.164 313.026 222.521 314.35 220.438 315.307C219.422 315.773 218.3 315.771 217.312 316.088C215.935 317.237 214.64 318.662 212.82 319.604C210 321.054 207.196 321.964 204.617 322.338H202.664L201.688 323.51L200.906 324.682C196.85 330.078 190.689 332.943 183.914 334.057C182.484 334.973 181.216 336.297 179.422 336.987C178.197 337.455 176.882 337.502 175.711 337.768C172.533 341.011 168.6 344.072 163.406 345.385C161.724 345.809 160.066 345.676 158.523 345.776C155.582 349.417 151.453 353.151 145.242 354.956L144.07 355.151L142.898 355.542C141.735 355.879 140.561 356.234 139.383 356.518L138.016 356.909L136.844 357.104C135.673 357.385 134.452 356.967 133.328 357.104C130.679 361.163 126.713 365.301 120.242 367.651L119.07 368.237L117.898 368.627C116.818 369.018 115.621 368.778 114.578 369.018C112.058 371.079 109.213 373.065 105.789 374.096C104.605 374.449 103.388 374.314 102.273 374.487C98.4038 378.116 93.8631 380.903 88.4062 381.713L87.625 382.885L82.7422 385.034C70.2464 390.907 55.2166 385.615 49.3438 373.12C44.8724 363.561 47.0068 352.627 53.8359 345.385L54.8125 344.213L60.6719 338.745C62.2472 337.607 64.3906 337.13 66.5312 336.206C67.2364 335.101 67.7162 333.78 68.6797 332.69C72.3716 328.531 76.8875 326.113 81.375 324.877C83.0266 323.006 85.0091 321.123 87.625 319.604C91.6959 317.26 95.8169 316.445 99.3438 316.284C99.6895 315.993 99.9502 315.589 100.32 315.307L101.297 314.526L102.469 313.745L108.914 310.034C111.123 309.103 113.416 308.466 115.75 308.081L117.117 307.885L118.289 307.69H123.172C126.184 304.156 130.426 300.898 136.453 299.292C138.617 297.868 140.73 296.669 142.898 295.971C145.909 292.035 150.48 288.265 157.156 286.596C157.859 286.422 158.625 286.708 159.305 286.596C160.577 285.793 161.849 284.689 163.406 284.057C166.357 282.868 169.207 282.431 171.805 282.299C172.429 281.822 173.082 281.368 173.758 280.932C176.886 276.62 181.462 272.273 188.406 270.581C189.334 269.884 190.232 269.047 191.336 268.432C193.711 267.114 196.133 266.397 198.367 265.893C202.789 262.666 207.632 261.016 212.625 260.815C215.233 259.737 217.626 259.052 220.047 258.862C221.156 258.247 222.258 257.395 223.562 256.909C226.918 255.666 230.06 255.104 232.938 255.151C234.352 254.239 235.853 253.303 237.625 252.612C241.415 251.141 245.149 250.492 248.562 250.659C251.723 249.672 255.072 249.404 258.523 249.682C259.373 249.367 260.334 249.332 261.258 249.096C266.251 245.644 272.788 242.998 280.594 244.409C281.58 244.588 282.434 245.119 283.328 245.385C284.657 244.593 285.985 243.644 287.625 243.042C292.132 241.389 296.444 241.116 300.32 241.674H300.906L302.078 241.284L311.453 239.721C314.577 239.733 317.671 240.282 320.633 241.284C325.228 239.252 330.372 238.156 335.672 238.94L342.898 241.088L343.68 241.479C346.512 240.547 349.876 239.848 353.641 240.112C363.184 240.811 368.757 246.522 371.805 250.268C373.257 250.412 374.63 250.888 376.102 251.245C380.917 250.507 387.299 250.602 393.68 254.37C396.459 256.018 398.421 258.222 400.125 260.229C402.674 261.519 404.72 263.497 406.766 265.502C408.697 265.864 410.734 266.111 412.82 267.065C413.145 266.814 413.452 266.527 413.797 266.284L414.969 265.502L415.945 264.917L422.391 261.596C423.248 260.762 424.071 259.828 425.125 259.057C429.759 255.686 434.499 254.249 438.602 253.979C440.267 251.901 442.369 249.86 445.047 248.12L445.828 247.729L446.609 246.752C450.629 242.645 455.154 240.917 459.305 239.917C461.225 238.449 463.429 237.004 466.141 236.01C468.955 234.981 471.679 234.539 474.148 234.448C476.644 231.663 480.029 229.073 484.695 227.417C487.656 226.376 490.528 225.884 493.094 225.854C495.773 221.462 499.841 216.727 506.57 214.135L507.742 213.745L508.914 213.159L509.891 212.963C513.528 209.504 518.395 206.647 524.734 205.932H524.93C525.44 205.615 525.941 205.251 526.492 204.956L527.469 204.37L528.641 203.784L537.625 200.854C539.847 198.596 542.687 196.672 546.219 195.19C549.505 192.215 553.537 189.604 558.523 188.549C561.966 187.828 565.169 188.17 567.898 188.549C568.253 188.352 568.505 187.954 568.875 187.768L570.047 187.182L571.219 186.792L581.375 183.471H581.57C584.011 180.401 587.529 176.993 592.898 175.073C597.016 173.611 600.915 173.55 604.227 173.901C605.277 173.014 606.239 171.943 607.547 171.167C613.965 167.354 620.014 167.168 624.93 168.042ZM310.477 519.213L311.453 517.456L310.281 510.034L309.109 511.01L310.477 519.213ZM311.453 517.456L310.477 519.213L309.109 511.01L310.281 510.034L311.453 517.456ZM279.422 495.385L276.297 497.338L275.516 498.51H277.469L279.422 495.385ZM277.469 498.51H275.516L276.297 497.338L277.273 496.752H278.641L277.469 498.51ZM327.273 495.581L326.297 497.534L327.469 497.338L327.273 495.581ZM327.273 495.581L327.469 497.338L326.297 497.534L327.273 495.581ZM278.641 496.752H277.273L279.422 495.385L278.641 496.752ZM298.562 482.885V483.667L299.734 482.104L298.562 482.885ZM303.836 481.127L305.203 480.346V479.565L303.836 481.127ZM404.031 472.534L405.984 472.729L406.18 470.971L404.227 470.776L404.031 472.534ZM298.562 483.667V482.885L299.734 482.104L298.562 483.667ZM305.203 480.346L303.836 481.127L305.203 479.565V480.346ZM292.898 471.752L295.633 470.581L296.805 469.018L294.07 469.995L292.898 471.752ZM405.594 337.182C405.162 337.345 404.652 337.242 404.227 337.377C403.472 338.359 403.049 339.757 402.078 340.698C400.884 341.848 399.233 342.204 397.977 343.042C396.1 347.504 393.326 352.578 387.625 355.932C387.061 356.264 386.232 356.045 385.672 356.323C385.02 357.151 384.904 358.454 384.109 359.252L383.328 360.229L382.352 361.01C379.582 363.791 376.342 365.729 372.977 367.26C371.668 369.203 370.038 371.17 367.898 372.924C365.001 375.294 361.94 376.531 359.109 377.417C358 381.642 355.975 386.298 351.297 390.307C350.914 390.634 350.316 390.794 349.93 391.088C349.443 392.009 349.196 393.099 348.562 394.018L347.781 395.19L347 396.167C344.32 399.998 340.999 402.255 337.82 403.979C336.826 405.388 335.555 406.495 334.305 407.69C332.42 411.484 330.055 414.965 326.688 417.651L325.711 418.627L324.734 419.409C324.476 419.615 324.018 419.605 323.758 419.799C323.725 421.286 324.069 422.867 323.758 424.487L323.367 425.659L323.172 427.026C322.516 430.38 321.403 433.694 319.656 436.792L319.07 437.963L318.484 438.94C317.727 440.276 316.43 441.17 315.555 442.26C315.709 443.169 316.472 444.009 316.531 444.995C316.819 449.93 315.454 454.027 313.797 457.495L314.578 461.596V464.331C316.238 468.283 316.705 472.107 316.531 475.659C318.283 476.584 319.841 477.621 321.219 478.784C322.113 478.576 322.985 478.125 323.953 478.002H325.32L326.492 477.807H333.523C336.373 475.72 339.601 474.562 342.898 473.706C345.611 471.82 348.696 470.398 352.078 469.604C353.123 469.361 354.216 469.327 355.203 469.213C355.979 468.781 356.698 468.213 357.547 467.846C360.392 466.623 363.207 465.937 365.75 465.698C366.468 464.755 366.828 463.478 367.703 462.573L368.68 461.792L369.461 460.815C371.711 458.486 374.288 456.703 376.883 455.346L377.273 454.76L377.859 453.588L383.719 444.995C386.141 442.633 388.951 440.637 392.117 439.331C392.7 439.09 393.305 438.936 393.875 438.745H394.07C394.562 438.308 395.132 437.957 395.633 437.573C395.946 436.6 396.147 435.456 396.609 434.448C398.075 431.278 400.069 428.512 402.469 426.245C403.737 423.55 405.51 420.898 407.938 418.432L408.719 417.456L409.5 416.674C409.841 416.328 410.322 416.024 410.672 415.698C412.353 412.105 414.52 408.801 417.508 406.323C417.948 405.958 418.433 405.668 418.875 405.346C419.81 399.96 422.2 395.847 424.93 392.651C424.956 392.137 424.879 391.611 424.93 391.088L425.125 390.307L424.93 388.94C424.815 387.949 424.943 386.969 424.93 386.01C422.424 381.045 420.779 374.59 422.977 366.87L423.172 366.284L424.148 358.862C423.431 356.965 423.099 354.987 422.781 353.002C422.414 352.579 422.145 352.079 421.805 351.635C420.596 351.02 419.119 350.771 417.898 349.877C412.557 345.962 409.919 340.572 408.523 335.229H408.328C407.376 335.73 406.643 336.786 405.594 337.182ZM406.18 470.971L405.984 472.729L404.031 472.534L404.227 470.776L406.18 470.971ZM295.633 470.581L292.898 471.752L294.07 469.995L296.805 469.018L295.633 470.581ZM280.594 463.159L278.836 464.331H281.766L283.523 463.159H280.594ZM281.766 464.331H278.836L280.594 463.159H283.523L281.766 464.331ZM445.633 403.002L446.023 404.37H447.977L447.586 403.002H445.633ZM447.977 404.37H446.023L445.633 403.002H447.586L447.977 404.37ZM432.547 390.502L435.281 390.698L435.867 390.112L432.547 390.502ZM435.281 390.698L432.547 390.502L435.867 390.112L435.281 390.698ZM438.406 387.182H439.383L439.188 386.401L438.406 387.182ZM439.383 387.182H438.406L439.188 386.401L439.383 387.182ZM339.578 366.674L339.383 368.432L341.336 367.846V366.284L339.578 366.674ZM330.984 370.581L333.523 369.995L333.914 367.846L331.375 368.432L330.984 370.581ZM333.523 369.995L330.984 370.581L331.375 368.432L333.914 367.846L333.523 369.995ZM341.336 367.846L339.383 368.432L339.578 366.674L341.336 366.284V367.846ZM96.8047 353.979L94.2656 358.081L94.8516 355.737L93.0938 355.542L91.5312 362.573L95.6328 355.932L98.3672 356.127L99.7344 354.174L96.8047 353.979ZM94.8516 355.737L94.2656 358.081L91.5312 362.573L93.0938 355.542L94.8516 355.737ZM96.8047 353.979L99.7344 354.174L98.3672 356.127L95.6328 355.932L96.8047 353.979ZM438.406 344.799L433.523 345.581V347.143H435.477L433.523 349.682H435.477L436.453 348.12L438.211 347.924L439.188 346.752H438.211L438.406 344.799ZM75.5156 345.19L75.9062 347.729H94.8516L95.4375 345.19H75.5156ZM435.867 346.948H437.43L435.477 349.682H433.523L435.477 347.143H433.523V345.581L435.867 345.19V346.948ZM438.406 344.799L438.211 346.752H439.188L438.211 347.924L436.453 348.12L437.43 346.948H435.867V346.362L436.844 344.995L438.406 344.799ZM458.719 344.995L455.984 345.19L451.883 348.12L456.961 347.729L468.875 339.526L465.945 339.917L458.719 344.995ZM454.617 347.924L451.883 348.12L454.031 346.557L456.766 346.362L454.617 347.924ZM456.961 347.729L454.617 347.924L456.766 346.362L459.305 346.167L456.961 347.729ZM95.4375 345.19L94.8516 347.729H75.9062L75.5156 345.19H95.4375ZM456.766 346.362L454.031 346.557L455.984 345.19L458.719 344.995L456.766 346.362ZM459.305 346.167L456.766 346.362L458.719 344.995L461.258 344.799L459.305 346.167ZM435.867 346.362V345.19L436.844 344.995L435.867 346.362ZM461.258 344.799L458.719 344.995L465.945 339.917L468.875 339.526L461.258 344.799ZM444.656 333.276H446.414L447.391 331.909H445.633L444.656 333.276ZM447.391 331.909L446.414 333.276H444.656L445.633 331.909H447.391ZM423.562 331.323V332.69L425.711 332.885V331.518L423.562 331.323ZM425.711 331.518V332.885L423.562 332.69V331.323L425.711 331.518ZM448.562 327.612H450.32L451.297 326.049H449.539L448.562 327.612ZM451.297 326.049L450.32 327.612H448.562L449.539 326.049H451.297ZM434.5 321.557L434.305 327.026H436.648V325.463L438.992 325.659L439.188 319.995L434.5 321.557ZM436.648 325.463V327.026H434.305V325.463H436.648ZM438.992 325.659L436.648 325.463L436.844 320.776L439.188 319.995L438.992 325.659ZM436.648 325.463H434.305L434.5 321.557L436.844 320.776L436.648 325.463ZM164.773 316.088L166.922 316.674L167.898 315.112L165.555 314.526L164.773 316.088ZM167.898 315.112L166.922 316.674L164.773 316.088L165.555 314.526L167.898 315.112ZM215.164 298.12L214.773 300.659L216.531 298.315L215.164 298.12ZM221.805 299.292L223.953 299.682L225.516 297.729L223.367 297.338L221.805 299.292ZM216.531 298.315L214.773 300.659L215.164 298.12L216.531 298.315ZM225.516 297.729L223.953 299.682L221.805 299.292L223.367 297.338L225.516 297.729ZM441.141 284.838L443.289 285.034L444.07 282.885H441.922L441.141 284.838ZM348.367 283.471L348.758 284.838L355.203 275.659L354.227 274.877L348.367 283.471ZM444.07 282.885L443.289 285.034L441.141 284.838L441.922 282.885H444.07ZM349.734 283.471L348.758 284.838L348.367 283.471L349.344 282.104L349.734 283.471ZM355.203 275.659L349.734 283.471L349.344 282.104L354.227 274.877L355.203 275.659ZM328.055 277.221L326.297 281.127L328.836 279.174L330.594 275.268L328.055 277.221ZM328.836 279.174L326.297 281.127L328.055 277.221L330.594 275.268L328.836 279.174ZM285.281 268.627L285.867 268.042L285.281 266.284V268.627ZM285.867 268.042L285.281 268.627V266.284L285.867 268.042ZM343.289 264.917L342.117 265.893L342.703 267.846L343.875 267.065L343.289 264.917ZM343.875 267.065L342.703 267.846L342.117 265.893L343.289 264.917L343.875 267.065ZM365.945 259.448L366.336 257.885L361.648 264.526L364.188 262.768L366.922 258.862L365.945 259.448ZM363.602 263.159L361.648 264.526L364.188 260.815L363.602 263.159ZM469.461 263.94L471.609 264.331L472.391 262.377L470.242 262.182L469.461 263.94ZM472.391 262.377L471.609 264.331L469.461 263.94L470.242 262.182L472.391 262.377ZM365.555 260.815L364.188 262.768L363.602 263.159L364.188 260.815L364.383 260.424L365.945 259.448L365.555 260.815ZM366.922 258.862L365.555 260.815L365.945 259.448L366.922 258.862ZM365.945 259.448L364.383 260.424L366.336 257.885L365.945 259.448ZM487.625 243.432L488.797 241.284L488.016 240.698L487.625 243.432ZM488.797 241.284L487.625 243.432L488.016 240.698L488.797 241.284ZM594.852 211.987L594.461 216.284L595.828 214.721L596.219 210.62L594.852 211.987ZM595.828 214.721L594.461 216.284L594.852 211.987L596.219 210.62L595.828 214.721ZM610.281 194.604L613.406 195.19L614.578 193.823L611.453 193.627L610.281 194.604ZM614.578 193.823L613.406 195.19L610.281 194.604L611.453 193.627L614.578 193.823Z" fill="#FF87C5"/>
</svg>
