<svg width="681" height="439" viewBox="0 0 681 439" fill="none" xmlns="http://www.w3.org/2000/svg">
<g filter="url(#filter0_d_811_169)">
<path d="M62.5005 232.375C66.8252 228.939 81.1624 220.295 105.348 207.519C128.358 195.364 145.241 189.445 152.114 185.003C160.186 179.787 171.432 174.905 184.632 168.198C191.289 164.815 202.714 158.946 219.754 153.704C236.794 148.461 259.067 143.951 273.027 141.627C291.844 138.495 301.193 138.874 312.5 138.223C329.834 137.225 342.278 138.217 345.876 138.864C348.965 139.42 360.541 145.116 378.538 153.775C399.451 163.838 408.401 178.511 420.34 191.206C429.107 200.528 434.225 214.952 438.701 226.007C441.203 232.187 441.675 242.06 441.466 256.46C441.287 268.728 432.987 283.48 425.785 298.765C422.027 306.742 410.544 318.619 392.773 336.277C379.509 349.457 361.845 359.662 343.52 369.636C331.942 375.939 318.787 375.992 305.479 375.891C296.689 375.824 289.916 368.012 283.587 360.645C276.723 352.656 277.427 341.328 276.991 331.138C276.549 320.807 278.724 309.013 284.799 294.004C288.835 284.032 297.793 270.619 306.134 259.027C321.577 237.567 335.483 225.47 343.333 218.541C349.796 212.838 365.75 198.856 387.58 181.941C397.819 174.007 410.347 166.275 426.713 155.109C436.173 148.655 449.014 141.966 466.667 131.461C475.07 126.461 483.023 123.319 492.979 118.112C515.103 106.542 533.786 95.9439 545.132 90.6362C562.148 82.6757 581.64 75.3119 597.133 70.3361C601.095 68.8099 604.338 67.3064 607.847 65.8876C611.356 64.4687 615.032 63.18 617.509 62.5032" stroke="black" stroke-width="25" stroke-linecap="round"/>
</g>
<defs>
<filter id="filter0_d_811_169" x="0" y="0" width="680.012" height="438.416" filterUnits="userSpaceOnUse" color-interpolation-filters="sRGB">
<feFlood flood-opacity="0" result="BackgroundImageFix"/>
<feColorMatrix in="SourceAlpha" type="matrix" values="0 0 0 0 0 0 0 0 0 0 0 0 0 0 0 0 0 0 127 0" result="hardAlpha"/>
<feOffset/>
<feGaussianBlur stdDeviation="25"/>
<feColorMatrix type="matrix" values="0 0 0 0 1 0 0 0 0 0.529412 0 0 0 0 0.772549 0 0 0 1 0"/>
<feBlend mode="normal" in2="BackgroundImageFix" result="effect1_dropShadow_811_169"/>
<feBlend mode="normal" in="SourceGraphic" in2="effect1_dropShadow_811_169" result="shape"/>
</filter>
</defs>
</svg>
