<svg width="656" height="414" viewBox="0 0 656 414" fill="none" xmlns="http://www.w3.org/2000/svg">
<g filter="url(#filter0_f_825_214)">
<path d="M50.001 219.878C54.3257 216.442 68.6629 207.799 92.8487 195.022C115.858 182.868 132.741 176.948 139.615 172.506C147.686 167.29 158.932 162.408 172.132 155.701C178.79 152.319 190.214 146.449 207.254 141.207C224.295 135.964 246.567 131.454 260.527 129.13C279.344 125.998 288.694 126.377 300 125.726C317.334 124.729 329.779 125.72 333.376 126.367C336.466 126.924 348.041 132.619 366.038 141.278C386.951 151.341 395.902 166.014 407.841 178.709C416.607 188.031 421.726 202.455 426.201 213.51C428.703 219.69 429.176 229.563 428.966 243.963C428.788 256.231 420.487 270.983 413.286 286.268C409.527 294.246 398.044 306.123 380.274 323.78C367.009 336.96 349.345 347.165 331.021 357.139C319.442 363.442 306.288 363.495 292.979 363.394C284.19 363.328 277.417 355.516 271.087 348.148C264.224 340.159 264.928 328.831 264.492 318.642C264.05 308.31 266.225 296.516 272.299 281.507C276.335 271.535 285.293 258.122 293.635 246.531C309.078 225.07 322.984 212.973 330.834 206.045C337.296 200.341 353.251 186.36 375.081 169.444C385.32 161.51 397.848 153.778 414.213 142.613C423.674 136.158 436.515 129.469 454.168 118.964C462.57 113.964 470.523 110.822 480.48 105.615C502.604 94.0454 521.286 83.4471 532.632 78.1394C549.649 70.1789 569.14 62.8151 584.634 57.8393C588.595 56.3131 591.839 54.8096 595.348 53.3908C598.856 51.9719 602.533 50.6832 605.009 50.0063" stroke="#FF87C5" stroke-width="50" stroke-linecap="round"/>
</g>
<defs>
<filter id="filter0_f_825_214" x="0" y="0" width="655.016" height="413.426" filterUnits="userSpaceOnUse" color-interpolation-filters="sRGB">
<feFlood flood-opacity="0" result="BackgroundImageFix"/>
<feBlend mode="normal" in="SourceGraphic" in2="BackgroundImageFix" result="shape"/>
<feGaussianBlur stdDeviation="12.5" result="effect1_foregroundBlur_825_214"/>
</filter>
</defs>
</svg>
