<svg width="605" height="367" viewBox="0 0 605 367" fill="none" xmlns="http://www.w3.org/2000/svg">
<path d="M577.936 0.430908C588.002 -0.417611 597.939 4.64128 602.545 14.2981C604.355 18.0938 604.853 22.0882 604.694 26.0168L604.889 26.2122V27.97L604.694 28.5559V30.1184C604.266 34.3172 602.26 42.1778 594.733 47.8918C592.414 49.6442 589.76 50.0397 587.506 50.8215C586.589 51.6421 585.896 52.8135 584.772 53.5559C581.219 55.8933 577.53 56.5869 574.225 57.0715C571.488 58.671 568.631 59.6891 565.436 60.1965C561.036 63.2335 555.723 65.7007 549.225 65.2747L547.858 65.0793H546.686C544.607 67.1469 542.122 69.2794 538.874 70.7434C533.843 73.0042 528.817 73.1741 524.616 72.6965C521.255 76.8453 516.585 81.0644 509.186 82.4622L507.819 82.6575H507.038C504.152 85.9985 500.214 89.3213 494.342 90.8606C491.235 91.6645 488.341 91.6526 485.749 91.4465C485.057 91.7046 484.486 92.2276 483.795 92.4231C483.622 92.6484 483.587 92.9805 483.405 93.2043L482.624 94.3762L481.842 95.3528C479.157 98.6441 475.605 101.67 471.295 103.751L470.514 104.142C466.256 107.951 461.297 109.791 456.061 110.392C455.019 111.035 454.01 111.481 452.936 111.954C449.582 115.307 445.41 118.536 439.459 119.572C439.176 119.62 438.762 119.338 438.483 119.376C438.003 119.662 437.632 120.282 437.116 120.548C434.486 121.895 431.915 122.688 429.499 123.087C429.056 123.735 428.857 124.591 428.327 125.236C424.486 129.894 419.071 132.553 413.288 133.829C411.737 134.77 410.329 135.612 408.795 136.173C408.005 136.941 407.409 137.996 406.452 138.712C406.25 138.863 405.872 138.765 405.67 138.907L406.061 140.079L406.647 141.251C406.759 141.558 406.732 141.919 406.842 142.228C407.129 142.411 407.532 142.42 407.819 142.618C412.751 146.044 415.5 150.902 417.194 155.9C417.844 156.659 418.762 157.201 419.342 158.048L423.834 168.986L424.03 170.353L424.225 171.525C424.399 172.527 424.302 173.641 424.42 174.65C427.197 179.964 428.468 185.478 427.936 190.665V192.032L427.741 193.4C427.511 195.637 426.802 197.815 426.178 200.04C427.033 201.593 428.131 203.149 428.717 205.118C430.417 210.859 429.593 216.31 427.936 221.134V226.407L428.131 227.775C428.401 229.707 428.495 231.677 428.522 233.634V236.564C428.574 242.62 426.67 248.856 422.467 253.947C422.049 254.452 421.337 254.665 420.905 255.118C420.403 258.537 419.446 262.202 417.389 265.665L416.803 266.642L416.217 267.814C413.154 272.97 408.83 275.804 405.084 277.775C403.672 279.669 402.088 281.358 400.202 282.853C399.247 285.368 397.973 287.713 396.295 289.884C395.597 292.968 394.645 296.367 392.389 299.65L391.803 300.822L391.022 301.798C387.997 306.195 384.113 308.921 380.28 310.782C378.496 312.796 376.863 315.13 374.225 316.642H373.639C371.362 321.442 367.835 326.419 361.334 329.532L358.991 330.704C358.016 331.171 356.85 331.123 355.866 331.486C352.835 336.01 348.912 340.074 342.975 342.228C339.022 345.453 334.783 346.959 330.67 347.697C328.838 348.875 327.078 350.279 324.811 351.017C322.49 351.769 320.232 351.865 318.17 351.993C316.568 352.785 314.803 352.898 313.092 353.361C311.276 354.714 309.259 355.746 307.038 356.681C302.949 360.418 296.592 363.997 288.288 363.712C287.392 363.681 286.584 363.237 285.749 363.126C284.885 363.588 284.193 364.494 283.209 364.884C275.033 368.116 266.703 366.768 260.358 363.126L258.991 362.54L257.819 361.759C256.969 361.271 256.266 360.55 255.475 360.001C251.794 359.289 247.852 357.705 244.147 354.728C243.821 354.465 243.67 354.021 243.366 353.751C241.776 353.229 239.944 353.14 238.288 352.189C231.307 348.174 228.326 342.058 226.764 336.759L225.592 335.587C223.085 333.952 219.458 331.054 216.803 326.212C213.917 320.934 213.112 315.001 214.069 309.415C214.717 305.688 216.279 302.689 217.78 300.236V300.04C215.667 295.993 213.742 291.157 214.069 285.392L214.264 284.22V282.853C214.373 280.961 214.817 279.225 215.241 277.579C214.97 276.162 214.482 274.694 214.459 273.087C214.419 269.258 215.062 265.78 216.217 262.931C216.206 259.839 216.648 256.381 218.17 252.775C219.848 248.812 222.355 246 224.811 243.79C224.724 237.966 226.234 231.051 232.428 224.845L232.624 224.65C235.898 218.442 240.812 214.604 245.514 212.345C246.175 207.232 248.266 201.18 254.108 196.134C254.772 195.566 255.583 195.045 256.256 194.572C257.447 191.403 259.532 188.229 262.702 185.197C263.428 184.503 264.301 184.009 265.045 183.439L266.022 181.486C269.83 173.515 276.204 169.709 282.038 167.814C283.518 166.519 284.835 164.907 286.725 163.907L286.92 163.712C290.372 159.564 294.659 157.295 298.639 155.9C300.204 152.737 302.593 149.496 306.256 146.72C307.076 146.103 308.166 145.841 308.991 145.353C310.917 141.535 313.896 137.687 318.366 134.806C318.537 134.696 318.78 134.52 318.952 134.415C319.34 133.834 319.673 133.231 320.124 132.657L319.928 132.462C319.304 132.27 318.607 132.316 317.975 132.072C315.642 131.949 313.167 131.683 310.749 131.095L309.577 130.704L308.405 130.509C306.037 129.933 303.96 128.5 301.764 127.384C295.939 128.918 289.99 128.927 284.577 126.603C282.874 125.865 281.411 124.774 280.084 123.868L280.28 124.064L279.108 124.259H277.936C274.902 124.519 271.707 124.392 268.756 123.868L266.413 123.478C266.176 123.436 265.866 123.328 265.631 123.282C262.947 124.501 260.317 125.127 257.624 125.431C256.198 126.37 254.909 127.826 253.131 128.556L251.959 128.947L250.788 129.532C247.663 130.808 244.314 131.612 240.827 131.876L239.655 132.072H238.288C235.195 132.299 232.404 131.909 229.889 131.29C226.64 133.455 222.521 135.218 217.389 135.587C214.433 135.796 211.949 134.793 209.577 134.22L208.991 135.001C204.99 138.45 199.963 139.844 194.733 140.47C193.527 141.182 192.472 142.256 191.022 142.814C186.483 144.558 182.348 144.629 178.717 144.181C177.17 145.415 175.528 146.739 173.444 147.697C172.428 148.163 171.306 148.161 170.319 148.478C168.942 149.627 167.647 151.052 165.827 151.993C163.006 153.444 160.202 154.353 157.624 154.728H155.67L154.694 155.9L153.913 157.072C149.856 162.467 143.696 165.333 136.92 166.447C135.49 167.362 134.222 168.687 132.428 169.376C131.203 169.844 129.888 169.891 128.717 170.157C125.539 173.401 121.606 176.462 116.413 177.775C114.731 178.198 113.072 178.065 111.53 178.165C108.588 181.806 104.459 185.541 98.2485 187.345L97.0766 187.54L95.9048 187.931C94.7414 188.269 93.5674 188.623 92.3891 188.907L91.0219 189.298L89.8501 189.493C88.6798 189.774 87.4583 189.357 86.3344 189.493C83.6851 193.552 79.7195 197.691 73.2485 200.04L72.0766 200.626L70.9048 201.017C69.8241 201.408 68.6276 201.168 67.5844 201.407C65.0646 203.468 62.2196 205.455 58.7954 206.486C57.6117 206.838 56.3939 206.704 55.2798 206.876C51.4101 210.505 46.8694 213.293 41.4126 214.103L40.6313 215.275L35.7485 217.423C23.2527 223.296 8.22294 218.005 2.35007 205.509C-2.12126 195.95 0.0130842 185.017 6.84225 177.775L7.81882 176.603L13.6782 171.134C15.2536 169.997 17.397 169.519 19.5376 168.595C20.2427 167.49 20.7225 166.17 21.686 165.079C25.3779 160.92 29.8938 158.502 34.3813 157.267C36.0329 155.396 38.0154 153.512 40.6313 151.993C44.7022 149.649 48.8232 148.835 52.3501 148.673C52.6958 148.383 52.9565 147.978 53.3266 147.697L54.3032 146.915L55.4751 146.134L61.9204 142.423C64.129 141.493 66.4226 140.855 68.7563 140.47L70.1235 140.275L71.2954 140.079H76.1782C79.19 136.546 83.4322 133.287 89.4594 131.681C91.6235 130.258 93.7361 129.058 95.9048 128.361C98.9152 124.424 103.486 120.654 110.163 118.986C110.865 118.811 111.632 119.097 112.311 118.986C113.583 118.182 114.855 117.079 116.413 116.447C119.364 115.258 122.213 114.821 124.811 114.689C125.436 114.212 126.089 113.758 126.764 113.322C129.892 109.009 134.468 104.663 141.413 102.97C142.341 102.273 143.238 101.436 144.342 100.822C146.717 99.5035 149.139 98.786 151.374 98.2825C155.795 95.0552 160.638 93.4054 165.631 93.2043C168.24 92.1262 170.632 91.4419 173.053 91.2512C174.162 90.6362 175.264 89.7844 176.569 89.2981C179.924 88.0555 183.066 87.4934 185.944 87.5403C187.358 86.6285 188.859 85.6923 190.631 85.0012C194.421 83.53 198.156 82.8813 201.569 83.0481C204.73 82.0616 208.078 81.7938 211.53 82.0715C212.38 81.7561 213.341 81.7212 214.264 81.4856C219.257 78.0332 225.794 75.3875 233.6 76.7981C234.586 76.9772 235.44 77.5089 236.334 77.7747C237.663 76.9821 238.991 76.0332 240.631 75.4309C245.138 73.7784 249.45 73.5051 253.327 74.0637H253.913L255.084 73.6731L264.459 72.1106C267.583 72.1226 270.677 72.671 273.639 73.6731C278.235 71.641 283.378 70.545 288.678 71.3293L295.905 73.4778L296.686 73.8684C299.519 72.9367 302.882 72.2377 306.647 72.5012C316.19 73.2005 321.764 78.9112 324.811 82.6575C326.263 82.8014 327.636 83.2777 329.108 83.634C333.923 82.896 340.306 82.9909 346.686 86.759C349.465 88.4079 351.428 90.6114 353.131 92.6184C355.68 93.908 357.727 95.886 359.772 97.8918C361.703 98.2533 363.74 98.5006 365.827 99.4543C366.151 99.2034 366.458 98.9162 366.803 98.6731L367.975 97.8918L368.952 97.3059L375.397 93.9856C376.254 93.1513 377.077 92.2172 378.131 91.4465C382.765 88.0756 387.506 86.6381 391.608 86.3684C393.274 84.2903 395.375 82.249 398.053 80.509L398.834 80.1184L399.616 79.1418C403.635 75.0342 408.161 73.306 412.311 72.3059C414.232 70.8388 416.436 69.393 419.147 68.3997C421.961 67.37 424.686 66.9288 427.155 66.8372C429.65 64.052 433.035 61.4623 437.702 59.8059C440.662 58.7655 443.535 58.2732 446.1 58.2434C448.779 53.8514 452.847 49.1167 459.577 46.5247L460.749 46.134L461.92 45.5481L462.897 45.3528C466.535 41.8932 471.401 39.0366 477.741 38.3215H477.936C478.446 38.0039 478.947 37.6402 479.499 37.345L480.475 36.759L481.647 36.1731L490.631 33.2434C492.854 30.9853 495.693 29.0617 499.225 27.5793C502.512 24.6047 506.543 21.9932 511.53 20.9387C514.972 20.2176 518.175 20.5591 520.905 20.9387C521.259 20.7413 521.511 20.3437 521.881 20.1575L523.053 19.5715L524.225 19.1809L534.381 15.8606H534.577C537.017 12.7905 540.536 9.38268 545.905 7.46216C550.022 6.00047 553.921 5.93918 557.233 6.29028C558.283 5.40344 559.246 4.33276 560.553 3.55591C566.972 -0.256432 573.021 -0.442863 577.936 0.430908ZM263.483 351.603L264.459 349.845L263.288 342.423L262.116 343.4L263.483 351.603ZM264.459 349.845L263.483 351.603L262.116 343.4L263.288 342.423L264.459 349.845ZM232.428 327.775L229.303 329.728L228.522 330.9H230.475L232.428 327.775ZM230.475 330.9H228.522L229.303 329.728L230.28 329.142H231.647L230.475 330.9ZM280.28 327.97L279.303 329.923L280.475 329.728L280.28 327.97ZM280.28 327.97L280.475 329.728L279.303 329.923L280.28 327.97ZM231.647 329.142H230.28L232.428 327.775L231.647 329.142ZM251.569 315.275V316.056L252.741 314.493L251.569 315.275ZM256.842 313.517L258.209 312.736V311.954L256.842 313.517ZM357.038 304.923L358.991 305.118L359.186 303.361L357.233 303.165L357.038 304.923ZM251.569 316.056V315.275L252.741 314.493L251.569 316.056ZM258.209 312.736L256.842 313.517L258.209 311.954V312.736ZM245.905 304.142L248.639 302.97L249.811 301.407L247.077 302.384L245.905 304.142ZM358.6 169.572C358.168 169.734 357.658 169.631 357.233 169.767C356.478 170.748 356.056 172.146 355.084 173.087C353.89 174.237 352.239 174.593 350.983 175.431C349.106 179.893 346.332 184.968 340.631 188.322C340.067 188.653 339.239 188.435 338.678 188.712C338.026 189.54 337.91 190.844 337.116 191.642L336.334 192.618L335.358 193.4C332.589 196.18 329.349 198.119 325.983 199.65C324.674 201.593 323.045 203.559 320.905 205.314C318.007 207.684 314.947 208.92 312.116 209.806C311.007 214.032 308.981 218.687 304.303 222.697C303.92 223.023 303.323 223.183 302.936 223.478C302.45 224.398 302.203 225.488 301.569 226.407L300.788 227.579L300.006 228.556C297.326 232.388 294.006 234.644 290.827 236.368C289.832 237.778 288.561 238.885 287.311 240.079C285.427 243.873 283.061 247.355 279.694 250.04L278.717 251.017L277.741 251.798C277.482 252.004 277.025 251.994 276.764 252.189C276.731 253.675 277.075 255.257 276.764 256.876L276.374 258.048L276.178 259.415C275.523 262.769 274.41 266.084 272.663 269.181L272.077 270.353L271.491 271.329C270.734 272.666 269.436 273.56 268.561 274.65C268.715 275.559 269.479 276.399 269.538 277.384C269.826 282.32 268.46 286.417 266.803 289.884L267.584 293.986V296.72C269.244 300.673 269.712 304.496 269.538 308.048C271.289 308.973 272.848 310.011 274.225 311.173C275.119 310.966 275.991 310.514 276.959 310.392H278.327L279.499 310.197H286.53C289.379 308.11 292.608 306.951 295.905 306.095C298.617 304.209 301.702 302.788 305.084 301.993C306.129 301.75 307.222 301.717 308.209 301.603C308.985 301.17 309.705 300.602 310.553 300.236C313.399 299.012 316.214 298.326 318.756 298.087C319.474 297.145 319.835 295.868 320.709 294.962L321.686 294.181L322.467 293.204C324.718 290.875 327.294 289.093 329.889 287.736L330.28 287.15L330.866 285.978L336.725 277.384C339.147 275.022 341.957 273.026 345.124 271.72C345.707 271.479 346.311 271.325 346.881 271.134H347.077C347.568 270.697 348.138 270.347 348.639 269.962C348.953 268.989 349.154 267.845 349.616 266.837C351.081 263.667 353.076 260.901 355.475 258.634C356.743 255.94 358.516 253.288 360.944 250.822L361.725 249.845L362.506 249.064C362.848 248.717 363.328 248.414 363.678 248.087C365.359 244.495 367.526 241.19 370.514 238.712C370.954 238.348 371.44 238.058 371.881 237.736C372.817 232.35 375.207 228.237 377.936 225.04C377.962 224.527 377.885 224 377.936 223.478L378.131 222.697L377.936 221.329C377.821 220.339 377.949 219.358 377.936 218.4C375.431 213.434 373.785 206.979 375.983 199.259L376.178 198.673L377.155 191.251C376.438 189.354 376.105 187.377 375.788 185.392C375.42 184.968 375.151 184.469 374.811 184.025C373.603 183.41 372.126 183.161 370.905 182.267C365.563 178.351 362.925 172.962 361.53 167.618H361.334C360.382 168.119 359.649 169.175 358.6 169.572ZM359.186 303.361L358.991 305.118L357.038 304.923L357.233 303.165L359.186 303.361ZM248.639 302.97L245.905 304.142L247.077 302.384L249.811 301.407L248.639 302.97ZM233.6 295.548L231.842 296.72H234.772L236.53 295.548H233.6ZM234.772 296.72H231.842L233.6 295.548H236.53L234.772 296.72ZM398.639 235.392L399.03 236.759H400.983L400.592 235.392H398.639ZM400.983 236.759H399.03L398.639 235.392H400.592L400.983 236.759ZM385.553 222.892L388.288 223.087L388.874 222.501L385.553 222.892ZM388.288 223.087L385.553 222.892L388.874 222.501L388.288 223.087ZM391.413 219.572H392.389L392.194 218.79L391.413 219.572ZM392.389 219.572H391.413L392.194 218.79L392.389 219.572ZM292.584 199.064L292.389 200.822L294.342 200.236V198.673L292.584 199.064ZM283.991 202.97L286.53 202.384L286.92 200.236L284.381 200.822L283.991 202.97ZM286.53 202.384L283.991 202.97L284.381 200.822L286.92 200.236L286.53 202.384ZM294.342 200.236L292.389 200.822L292.584 199.064L294.342 198.673V200.236ZM49.811 186.368L47.2719 190.47L47.8579 188.126L46.1001 187.931L44.5376 194.962L48.6391 188.322L51.3735 188.517L52.7407 186.564L49.811 186.368ZM47.8579 188.126L47.2719 190.47L44.5376 194.962L46.1001 187.931L47.8579 188.126ZM49.811 186.368L52.7407 186.564L51.3735 188.517L48.6391 188.322L49.811 186.368ZM391.413 177.189L386.53 177.97V179.532H388.483L386.53 182.072H388.483L389.459 180.509L391.217 180.314L392.194 179.142H391.217L391.413 177.189ZM28.5219 177.579L28.9126 180.118H47.8579L48.4438 177.579H28.5219ZM388.874 179.337H390.436L388.483 182.072H386.53L388.483 179.532H386.53V177.97L388.874 177.579V179.337ZM391.413 177.189L391.217 179.142H392.194L391.217 180.314L389.459 180.509L390.436 179.337H388.874V178.751L389.85 177.384L391.413 177.189ZM411.725 177.384L408.991 177.579L404.889 180.509L409.967 180.118L421.881 171.915L418.952 172.306L411.725 177.384ZM407.624 180.314L404.889 180.509L407.038 178.947L409.772 178.751L407.624 180.314ZM409.967 180.118L407.624 180.314L409.772 178.751L412.311 178.556L409.967 180.118ZM48.4438 177.579L47.8579 180.118H28.9126L28.5219 177.579H48.4438ZM409.772 178.751L407.038 178.947L408.991 177.579L411.725 177.384L409.772 178.751ZM412.311 178.556L409.772 178.751L411.725 177.384L414.264 177.189L412.311 178.556ZM388.874 178.751V177.579L389.85 177.384L388.874 178.751ZM414.264 177.189L411.725 177.384L418.952 172.306L421.881 171.915L414.264 177.189ZM397.663 165.665H399.42L400.397 164.298H398.639L397.663 165.665ZM400.397 164.298L399.42 165.665H397.663L398.639 164.298H400.397ZM376.569 163.712V165.079L378.717 165.275V163.907L376.569 163.712ZM378.717 163.907V165.275L376.569 165.079V163.712L378.717 163.907ZM401.569 160.001H403.327L404.303 158.439H402.545L401.569 160.001ZM404.303 158.439L403.327 160.001H401.569L402.545 158.439H404.303ZM387.506 153.947L387.311 159.415H389.655V157.853L391.999 158.048L392.194 152.384L387.506 153.947ZM389.655 157.853V159.415H387.311V157.853H389.655ZM391.999 158.048L389.655 157.853L389.85 153.165L392.194 152.384L391.999 158.048ZM389.655 157.853H387.311L387.506 153.947L389.85 153.165L389.655 157.853ZM117.78 148.478L119.928 149.064L120.905 147.501L118.561 146.915L117.78 148.478ZM120.905 147.501L119.928 149.064L117.78 148.478L118.561 146.915L120.905 147.501ZM168.17 130.509L167.78 133.048L169.538 130.704L168.17 130.509ZM174.811 131.681L176.959 132.072L178.522 130.118L176.374 129.728L174.811 131.681ZM169.538 130.704L167.78 133.048L168.17 130.509L169.538 130.704ZM178.522 130.118L176.959 132.072L174.811 131.681L176.374 129.728L178.522 130.118ZM394.147 117.228L396.295 117.423L397.077 115.275H394.928L394.147 117.228ZM301.374 115.861L301.764 117.228L308.209 108.048L307.233 107.267L301.374 115.861ZM397.077 115.275L396.295 117.423L394.147 117.228L394.928 115.275H397.077ZM302.741 115.861L301.764 117.228L301.374 115.861L302.35 114.493L302.741 115.861ZM308.209 108.048L302.741 115.861L302.35 114.493L307.233 107.267L308.209 108.048ZM281.061 109.611L279.303 113.517L281.842 111.564L283.6 107.657L281.061 109.611ZM281.842 111.564L279.303 113.517L281.061 109.611L283.6 107.657L281.842 111.564ZM238.288 101.017L238.874 100.431L238.288 98.6731V101.017ZM238.874 100.431L238.288 101.017V98.6731L238.874 100.431ZM296.295 97.3059L295.124 98.2825L295.709 100.236L296.881 99.4543L296.295 97.3059ZM296.881 99.4543L295.709 100.236L295.124 98.2825L296.295 97.3059L296.881 99.4543ZM318.952 91.8372L319.342 90.2747L314.655 96.9153L317.194 95.1575L319.928 91.2512L318.952 91.8372ZM316.608 95.5481L314.655 96.9153L317.194 93.2043L316.608 95.5481ZM422.467 96.3293L424.616 96.72L425.397 94.7668L423.249 94.5715L422.467 96.3293ZM425.397 94.7668L424.616 96.72L422.467 96.3293L423.249 94.5715L425.397 94.7668ZM318.561 93.2043L317.194 95.1575L316.608 95.5481L317.194 93.2043L317.389 92.8137L318.952 91.8372L318.561 93.2043ZM319.928 91.2512L318.561 93.2043L318.952 91.8372L319.928 91.2512ZM318.952 91.8372L317.389 92.8137L319.342 90.2747L318.952 91.8372ZM440.631 75.8215L441.803 73.6731L441.022 73.0872L440.631 75.8215ZM441.803 73.6731L440.631 75.8215L441.022 73.0872L441.803 73.6731ZM547.858 44.3762L547.467 48.6731L548.834 47.1106L549.225 43.009L547.858 44.3762ZM548.834 47.1106L547.467 48.6731L547.858 44.3762L549.225 43.009L548.834 47.1106ZM563.288 26.9934L566.413 27.5793L567.584 26.2122L564.459 26.0168L563.288 26.9934ZM567.584 26.2122L566.413 27.5793L563.288 26.9934L564.459 26.0168L567.584 26.2122Z" fill="#FF87C5"/>
</svg>
