<svg width="706" height="465" viewBox="0 0 706 465" fill="none" xmlns="http://www.w3.org/2000/svg">
<g filter="url(#filter0_d_811_177)">
<path d="M75.001 221.026C79.3257 217.59 93.6629 208.946 117.849 196.17C140.858 184.015 157.741 178.096 164.615 173.654C172.686 168.438 183.932 163.556 197.132 156.849C203.79 153.466 215.214 147.597 232.254 142.354C249.295 137.112 271.567 132.601 285.527 130.278C304.344 127.146 313.694 127.525 325 126.874C342.334 125.876 354.779 126.867 358.376 127.515C361.466 128.071 373.041 133.766 391.038 142.426C411.951 152.489 420.902 167.162 432.841 179.856C441.607 189.179 446.726 203.603 451.201 214.657C453.703 220.838 454.176 230.711 453.966 245.111C453.788 257.378 445.487 272.131 438.286 287.416C434.527 295.393 423.044 307.27 405.274 324.928C392.009 338.108 374.345 348.313 356.021 358.287C344.442 364.589 331.288 364.643 317.979 364.542C309.19 364.475 302.417 356.663 296.087 349.296C289.224 341.307 289.928 329.978 289.492 319.789C289.05 309.458 291.225 297.664 297.299 282.655C301.335 272.683 310.293 259.27 318.635 247.678C334.078 226.218 347.984 214.121 355.834 207.192C362.296 201.489 378.251 187.507 400.081 170.592C410.32 162.658 422.848 154.926 439.213 143.76C448.674 137.306 461.515 130.616 479.168 120.112C487.57 115.112 495.523 111.97 505.48 106.763C527.604 95.193 546.286 84.5947 557.632 79.2871C574.649 71.3265 594.14 63.9628 609.634 58.987C613.595 57.4608 616.839 55.9573 620.348 54.5385C623.856 53.1196 627.533 51.8309 630.009 51.154" stroke="#FF87C5" stroke-width="50" stroke-linecap="round"/>
<path d="M75.001 207.375C79.3257 203.939 93.6629 195.295 117.849 182.519C140.858 170.364 157.741 164.445 164.615 160.003C172.686 154.787 183.932 149.905 197.132 143.198C203.79 139.815 215.214 133.946 232.254 128.704C249.295 123.461 271.567 118.951 285.527 116.627C304.344 113.495 313.694 113.874 325 113.223C342.334 112.225 354.779 113.217 358.376 113.864C361.466 114.42 373.041 120.116 391.038 128.775C411.951 138.838 420.902 153.511 432.841 166.206C441.607 175.528 446.726 189.952 451.201 201.007C453.703 207.187 454.176 217.06 453.966 231.46C453.788 243.728 445.487 258.48 438.286 273.765C434.527 281.742 423.044 293.619 405.274 311.277C392.009 324.457 374.345 334.662 356.021 344.636C344.442 350.939 331.288 350.992 317.979 350.891C309.19 350.824 302.417 343.012 296.087 335.645C289.224 327.656 289.928 316.328 289.492 306.138C289.05 295.807 291.225 284.013 297.299 269.004C301.335 259.032 310.293 245.619 318.635 234.027C334.078 212.567 347.984 200.47 355.834 193.541C362.296 187.838 378.251 173.856 400.081 156.941C410.32 149.007 422.848 141.275 439.213 130.109C448.674 123.655 461.515 116.966 479.168 106.461C487.57 101.461 495.523 98.3187 505.48 93.1119C527.604 81.5422 546.286 70.9439 557.632 65.6362C574.649 57.6757 594.14 50.3119 609.634 45.3362C613.595 43.8099 616.839 42.3064 620.348 40.8876C623.856 39.4687 627.533 38.18 630.009 37.5032" stroke="white" stroke-opacity="0.5" stroke-width="25" stroke-linecap="round"/>
</g>
<defs>
<filter id="filter0_d_811_177" x="0" y="0" width="705.016" height="464.573" filterUnits="userSpaceOnUse" color-interpolation-filters="sRGB">
<feFlood flood-opacity="0" result="BackgroundImageFix"/>
<feColorMatrix in="SourceAlpha" type="matrix" values="0 0 0 0 0 0 0 0 0 0 0 0 0 0 0 0 0 0 127 0" result="hardAlpha"/>
<feOffset dy="25"/>
<feGaussianBlur stdDeviation="25"/>
<feColorMatrix type="matrix" values="0 0 0 0 0 0 0 0 0 0 0 0 0 0 0 0 0 0 0.5 0"/>
<feBlend mode="normal" in2="BackgroundImageFix" result="effect1_dropShadow_811_177"/>
<feBlend mode="normal" in="SourceGraphic" in2="effect1_dropShadow_811_177" result="shape"/>
</filter>
</defs>
</svg>
