<svg width="703" height="700" viewBox="0 0 703 700" fill="none" xmlns="http://www.w3.org/2000/svg">
<rect x="3.00098" width="700" height="700" rx="100" fill="#FFDCEE"/>
<g filter="url(#filter0_d_811_177)">
<path d="M75.001 362.523C79.3257 359.086 93.6629 350.443 117.849 337.667C140.858 325.512 157.741 319.593 164.615 315.151C172.686 309.935 183.932 305.053 197.132 298.346C203.79 294.963 215.214 289.094 232.254 283.851C249.295 278.609 271.567 274.098 285.527 271.775C304.344 268.643 313.694 269.022 325 268.371C342.334 267.373 354.779 268.364 358.376 269.012C361.466 269.568 373.041 275.263 391.038 283.923C411.951 293.986 420.902 308.658 432.841 321.353C441.607 330.675 446.726 345.1 451.201 356.154C453.703 362.335 454.176 372.208 453.966 386.608C453.788 398.875 445.487 413.628 438.286 428.913C434.527 436.89 423.044 448.767 405.274 466.425C392.009 479.605 374.345 489.81 356.021 499.784C344.442 506.086 331.288 506.14 317.979 506.039C309.19 505.972 302.417 498.16 296.087 490.792C289.224 482.804 289.928 471.475 289.492 461.286C289.05 450.955 291.225 439.16 297.299 424.152C301.335 414.18 310.293 400.767 318.635 389.175C334.078 367.715 347.984 355.617 355.834 348.689C362.296 342.986 378.251 329.004 400.081 312.088C410.32 304.154 422.848 296.422 439.213 285.257C448.674 278.802 461.515 272.113 479.168 261.608C487.57 256.608 495.523 253.466 505.48 248.26C527.604 236.69 546.286 226.092 557.632 220.784C574.649 212.823 594.14 205.46 609.634 200.484C613.595 198.958 616.839 197.454 620.348 196.035C623.856 194.616 627.533 193.328 630.009 192.651" stroke="#FF87C5" stroke-width="50" stroke-linecap="round"/>
</g>
<path d="M75.001 348.872C79.3257 345.436 93.6629 336.792 117.849 324.016C140.858 311.861 157.741 305.942 164.615 301.5C172.686 296.284 183.932 291.402 197.132 284.695C203.79 281.312 215.214 275.443 232.254 270.2C249.295 264.958 271.567 260.447 285.527 258.124C304.344 254.992 313.694 255.371 325 254.72C342.334 253.722 354.779 254.713 358.376 255.361C361.466 255.917 373.041 261.612 391.038 270.272C411.951 280.335 420.902 295.008 432.841 307.702C441.607 317.024 446.726 331.449 451.201 342.503C453.703 348.684 454.176 358.557 453.966 372.957C453.788 385.224 445.487 399.977 438.286 415.262C434.527 423.239 423.044 435.116 405.274 452.774C392.009 465.954 374.345 476.159 356.021 486.133C344.442 492.435 331.288 492.489 317.979 492.388C309.19 492.321 302.417 484.509 296.087 477.142C289.224 469.153 289.928 457.824 289.492 447.635C289.05 437.304 291.225 425.51 297.299 410.501C301.335 400.529 310.293 387.116 318.635 375.524C334.078 354.064 347.984 341.966 355.834 335.038C362.296 329.335 378.251 315.353 400.081 298.438C410.32 290.504 422.848 282.772 439.213 271.606C448.674 265.152 461.515 258.462 479.168 247.958C487.57 242.958 495.523 239.815 505.48 234.609C527.604 223.039 546.286 212.441 557.632 207.133C574.649 199.173 594.14 191.809 609.634 186.833C613.595 185.307 616.839 183.803 620.348 182.384C623.856 180.966 627.533 179.677 630.009 179" stroke="white" stroke-opacity="0.5" stroke-width="25" stroke-linecap="round"/>
<defs>
<filter id="filter0_d_811_177" x="0" y="142.645" width="705.016" height="463.426" filterUnits="userSpaceOnUse" color-interpolation-filters="sRGB">
<feFlood flood-opacity="0" result="BackgroundImageFix"/>
<feColorMatrix in="SourceAlpha" type="matrix" values="0 0 0 0 0 0 0 0 0 0 0 0 0 0 0 0 0 0 127 0" result="hardAlpha"/>
<feOffset dy="25"/>
<feGaussianBlur stdDeviation="25"/>
<feColorMatrix type="matrix" values="0 0 0 0 0 0 0 0 0 0 0 0 0 0 0 0 0 0 0.5 0"/>
<feBlend mode="normal" in2="BackgroundImageFix" result="effect1_dropShadow_811_177"/>
<feBlend mode="normal" in="SourceGraphic" in2="effect1_dropShadow_811_177" result="shape"/>
</filter>
</defs>
</svg>
