<svg width="700" height="700" viewBox="0 0 700 700" fill="none" xmlns="http://www.w3.org/2000/svg">
<rect width="700" height="700" rx="100" fill="#FFDCEE"/>
<path d="M72 362.523C76.3247 359.086 90.6619 350.443 114.848 337.667C137.857 325.512 154.74 319.593 161.614 315.151C169.685 309.935 180.931 305.053 194.131 298.346C200.789 294.963 212.213 289.094 229.254 283.851C246.294 278.609 268.566 274.098 282.526 271.775C301.343 268.643 310.693 269.022 322 268.371C339.333 267.373 351.778 268.364 355.375 269.012C358.465 269.568 370.04 275.263 388.037 283.923C408.95 293.986 417.901 308.658 429.84 321.353C438.607 330.675 443.725 345.1 448.2 356.154C450.702 362.335 451.175 372.208 450.965 386.608C450.787 398.875 442.486 413.628 435.285 428.913C431.526 436.89 420.043 448.767 402.273 466.425C389.008 479.605 371.344 489.81 353.02 499.784C341.441 506.086 328.287 506.14 314.978 506.039C306.189 505.972 299.416 498.16 293.086 490.792C286.223 482.804 286.927 471.475 286.491 461.286C286.049 450.955 288.224 439.16 294.298 424.152C298.334 414.18 307.292 400.767 315.634 389.175C331.077 367.715 344.983 355.617 352.833 348.689C359.295 342.986 375.25 329.004 397.08 312.088C407.319 304.154 419.847 296.422 436.212 285.257C445.673 278.802 458.514 272.113 476.167 261.608C484.569 256.608 492.522 253.466 502.479 248.26C524.603 236.69 543.285 226.092 554.631 220.784C571.648 212.823 591.139 205.46 606.633 200.484C610.594 198.958 613.838 197.454 617.347 196.035C620.855 194.616 624.532 193.328 627.008 192.651" stroke="black" stroke-opacity="0.75" stroke-width="50" stroke-linecap="round"/>
<path d="M72 362.523C76.3247 359.086 90.6619 350.443 114.848 337.667C137.857 325.512 154.74 319.593 161.614 315.151C169.685 309.935 180.931 305.053 194.131 298.346C200.789 294.963 212.213 289.094 229.254 283.851C246.294 278.609 268.566 274.098 282.526 271.775C301.343 268.643 310.693 269.022 322 268.371C339.333 267.373 351.778 268.364 355.375 269.012C358.465 269.568 370.04 275.263 388.037 283.923C408.95 293.986 417.901 308.658 429.84 321.353C438.607 330.675 443.725 345.1 448.2 356.154C450.702 362.335 451.175 372.208 450.965 386.608C450.787 398.875 442.486 413.628 435.285 428.913C431.526 436.89 420.043 448.767 402.273 466.425C389.008 479.605 371.344 489.81 353.02 499.784C341.441 506.086 328.287 506.14 314.978 506.039C306.189 505.972 299.416 498.16 293.086 490.792C286.223 482.804 286.927 471.475 286.491 461.286C286.049 450.955 288.224 439.16 294.298 424.152C298.334 414.18 307.292 400.767 315.634 389.175C331.077 367.715 344.983 355.617 352.833 348.689C359.295 342.986 375.25 329.004 397.08 312.088C407.319 304.154 419.847 296.422 436.212 285.257C445.673 278.802 458.514 272.113 476.167 261.608C484.569 256.608 492.522 253.466 502.479 248.26C524.603 236.69 543.285 226.092 554.631 220.784C571.648 212.823 591.139 205.46 606.633 200.484C610.594 198.958 613.838 197.454 617.347 196.035C620.855 194.616 624.532 193.328 627.008 192.651" stroke="#FF87C5" stroke-width="40" stroke-linecap="round"/>
</svg>
